<mxfile host="app.diagrams.net" modified="2024-01-27T01:11:49.604Z" agent="Mozilla/5.0 (Windows NT 10.0; Win64; x64) AppleWebKit/537.36 (KHTML, like Gecko) Chrome/120.0.0.0 Safari/537.36" etag="VJHF1Bf2QWxRgSsOM3oa" version="23.0.2" type="google">
  <diagram name="Page-1" id="qMfGn2Zx6AIDvUcrTSja">
    <mxGraphModel grid="1" page="1" gridSize="10" guides="1" tooltips="1" connect="1" arrows="1" fold="1" pageScale="1" pageWidth="827" pageHeight="1169" math="0" shadow="0">
      <root>
        <mxCell id="0" />
        <mxCell id="1" parent="0" />
        <mxCell id="modZWdYMD9csAqS5zvxK-1" value="مدیریت کاربران" style="swimlane;html=1;childLayout=stackLayout;resizeParent=1;resizeParentMax=0;horizontal=0;startSize=20;horizontalStack=0;" vertex="1" parent="1">
          <mxGeometry x="280" y="130" width="850" height="570" as="geometry" />
        </mxCell>
        <mxCell id="modZWdYMD9csAqS5zvxK-2" value="مدیر&amp;nbsp; سامانه" style="swimlane;html=1;startSize=20;horizontal=0;" vertex="1" parent="modZWdYMD9csAqS5zvxK-1">
          <mxGeometry x="20" width="830" height="160" as="geometry">
            <mxRectangle x="20" width="490" height="30" as="alternateBounds" />
          </mxGeometry>
        </mxCell>
        <mxCell id="modZWdYMD9csAqS5zvxK-4" value="" style="ellipse;fillColor=strokeColor;html=1;" vertex="1" parent="modZWdYMD9csAqS5zvxK-2">
          <mxGeometry x="60" y="20" width="30" height="30" as="geometry" />
        </mxCell>
        <mxCell id="modZWdYMD9csAqS5zvxK-52" style="edgeStyle=orthogonalEdgeStyle;rounded=0;orthogonalLoop=1;jettySize=auto;html=1;entryX=0.5;entryY=0;entryDx=0;entryDy=0;" edge="1" parent="modZWdYMD9csAqS5zvxK-1" source="modZWdYMD9csAqS5zvxK-4" target="modZWdYMD9csAqS5zvxK-51">
          <mxGeometry relative="1" as="geometry" />
        </mxCell>
        <mxCell id="modZWdYMD9csAqS5zvxK-27" value="سامانه" style="swimlane;html=1;startSize=20;horizontal=0;" vertex="1" parent="modZWdYMD9csAqS5zvxK-1">
          <mxGeometry x="20" y="160" width="830" height="410" as="geometry" />
        </mxCell>
        <mxCell id="modZWdYMD9csAqS5zvxK-80" style="edgeStyle=orthogonalEdgeStyle;rounded=0;orthogonalLoop=1;jettySize=auto;html=1;entryX=0;entryY=0.5;entryDx=0;entryDy=0;" edge="1" parent="modZWdYMD9csAqS5zvxK-27" source="modZWdYMD9csAqS5zvxK-50" target="modZWdYMD9csAqS5zvxK-49">
          <mxGeometry relative="1" as="geometry">
            <mxPoint x="820" y="420" as="targetPoint" />
          </mxGeometry>
        </mxCell>
        <mxCell id="modZWdYMD9csAqS5zvxK-87" value="" style="edgeStyle=orthogonalEdgeStyle;rounded=0;orthogonalLoop=1;jettySize=auto;html=1;" edge="1" parent="modZWdYMD9csAqS5zvxK-27" source="modZWdYMD9csAqS5zvxK-51" target="modZWdYMD9csAqS5zvxK-54">
          <mxGeometry relative="1" as="geometry" />
        </mxCell>
        <mxCell id="modZWdYMD9csAqS5zvxK-51" value="" style="rhombus;" vertex="1" parent="modZWdYMD9csAqS5zvxK-27">
          <mxGeometry x="60" y="50" width="30" height="30" as="geometry" />
        </mxCell>
        <mxCell id="modZWdYMD9csAqS5zvxK-56" value="&lt;font style=&quot;font-size: 14px;&quot;&gt;انتخاب عملیات&lt;/font&gt;" style="html=1;align=center;verticalAlign=top;rounded=1;absoluteArcSize=1;arcSize=13;dashed=0;whiteSpace=wrap;" vertex="1" parent="modZWdYMD9csAqS5zvxK-27">
          <mxGeometry x="110" y="-70" width="140" height="40" as="geometry" />
        </mxCell>
        <mxCell id="modZWdYMD9csAqS5zvxK-57" style="edgeStyle=orthogonalEdgeStyle;rounded=0;orthogonalLoop=1;jettySize=auto;html=1;entryX=0.5;entryY=1;entryDx=0;entryDy=0;" edge="1" parent="modZWdYMD9csAqS5zvxK-27" source="modZWdYMD9csAqS5zvxK-54" target="modZWdYMD9csAqS5zvxK-56">
          <mxGeometry relative="1" as="geometry" />
        </mxCell>
        <mxCell id="modZWdYMD9csAqS5zvxK-59" style="edgeStyle=orthogonalEdgeStyle;rounded=0;orthogonalLoop=1;jettySize=auto;html=1;entryX=0;entryY=0.5;entryDx=0;entryDy=0;" edge="1" parent="modZWdYMD9csAqS5zvxK-27" source="modZWdYMD9csAqS5zvxK-56" target="modZWdYMD9csAqS5zvxK-58">
          <mxGeometry relative="1" as="geometry">
            <Array as="points">
              <mxPoint x="270" y="-50" />
              <mxPoint x="270" y="195" />
            </Array>
          </mxGeometry>
        </mxCell>
        <mxCell id="modZWdYMD9csAqS5zvxK-54" value="&lt;font style=&quot;font-size: 14px;&quot;&gt;درخواست انتخاب عملیات&lt;/font&gt;" style="html=1;align=center;verticalAlign=top;rounded=1;absoluteArcSize=1;arcSize=13;dashed=0;whiteSpace=wrap;" vertex="1" parent="modZWdYMD9csAqS5zvxK-27">
          <mxGeometry x="110" y="45" width="140" height="40" as="geometry" />
        </mxCell>
        <mxCell id="modZWdYMD9csAqS5zvxK-49" value="" style="ellipse;html=1;shape=endState;fillColor=strokeColor;" vertex="1" parent="modZWdYMD9csAqS5zvxK-27">
          <mxGeometry x="780" y="180" width="30" height="30" as="geometry" />
        </mxCell>
        <mxCell id="modZWdYMD9csAqS5zvxK-50" value="" style="rhombus;" vertex="1" parent="modZWdYMD9csAqS5zvxK-27">
          <mxGeometry x="670" y="180" width="30" height="30" as="geometry" />
        </mxCell>
        <mxCell id="modZWdYMD9csAqS5zvxK-68" style="edgeStyle=orthogonalEdgeStyle;rounded=0;orthogonalLoop=1;jettySize=auto;html=1;entryX=0;entryY=0.571;entryDx=0;entryDy=0;entryPerimeter=0;" edge="1" parent="modZWdYMD9csAqS5zvxK-27" source="modZWdYMD9csAqS5zvxK-58" target="modZWdYMD9csAqS5zvxK-65">
          <mxGeometry relative="1" as="geometry">
            <mxPoint x="350" y="362.6086956521739" as="targetPoint" />
            <Array as="points">
              <mxPoint x="340" y="360" />
            </Array>
          </mxGeometry>
        </mxCell>
        <mxCell id="modZWdYMD9csAqS5zvxK-69" style="edgeStyle=orthogonalEdgeStyle;rounded=0;orthogonalLoop=1;jettySize=auto;html=1;entryX=0;entryY=0.571;entryDx=0;entryDy=0;entryPerimeter=0;" edge="1" parent="modZWdYMD9csAqS5zvxK-27" source="modZWdYMD9csAqS5zvxK-58" target="modZWdYMD9csAqS5zvxK-64">
          <mxGeometry relative="1" as="geometry">
            <mxPoint x="360" y="284.3478260869565" as="targetPoint" />
            <Array as="points">
              <mxPoint x="340" y="280" />
            </Array>
          </mxGeometry>
        </mxCell>
        <mxCell id="modZWdYMD9csAqS5zvxK-71" value="" style="edgeStyle=orthogonalEdgeStyle;rounded=0;orthogonalLoop=1;jettySize=auto;html=1;entryX=-0.005;entryY=0.497;entryDx=0;entryDy=0;entryPerimeter=0;" edge="1" parent="modZWdYMD9csAqS5zvxK-27" source="modZWdYMD9csAqS5zvxK-58" target="modZWdYMD9csAqS5zvxK-62">
          <mxGeometry relative="1" as="geometry">
            <mxPoint x="390" y="120" as="targetPoint" />
            <Array as="points">
              <mxPoint x="340" y="120" />
            </Array>
          </mxGeometry>
        </mxCell>
        <mxCell id="modZWdYMD9csAqS5zvxK-72" value="" style="edgeStyle=orthogonalEdgeStyle;rounded=0;orthogonalLoop=1;jettySize=auto;html=1;" edge="1" parent="modZWdYMD9csAqS5zvxK-27" source="modZWdYMD9csAqS5zvxK-58" target="modZWdYMD9csAqS5zvxK-61">
          <mxGeometry relative="1" as="geometry">
            <mxPoint x="380" y="30" as="targetPoint" />
            <Array as="points">
              <mxPoint x="340" y="45" />
            </Array>
          </mxGeometry>
        </mxCell>
        <mxCell id="modZWdYMD9csAqS5zvxK-58" value="" style="rhombus;" vertex="1" parent="modZWdYMD9csAqS5zvxK-27">
          <mxGeometry x="310" y="180" width="30" height="30" as="geometry" />
        </mxCell>
        <mxCell id="modZWdYMD9csAqS5zvxK-73" value="" style="edgeStyle=orthogonalEdgeStyle;rounded=0;orthogonalLoop=1;jettySize=auto;html=1;" edge="1" parent="modZWdYMD9csAqS5zvxK-27" source="modZWdYMD9csAqS5zvxK-61" target="modZWdYMD9csAqS5zvxK-50">
          <mxGeometry relative="1" as="geometry" />
        </mxCell>
        <mxCell id="modZWdYMD9csAqS5zvxK-61" value="اضافه کردن&amp;nbsp; &amp;nbsp; &amp;nbsp; &amp;nbsp; &amp;nbsp;" style="shape=mxgraph.uml25.behaviorAction;html=1;rounded=1;absoluteArcSize=1;arcSize=10;align=center;spacingLeft=5;whiteSpace=wrap;" vertex="1" parent="modZWdYMD9csAqS5zvxK-27">
          <mxGeometry x="450" y="10" width="160" height="70" as="geometry" />
        </mxCell>
        <mxCell id="modZWdYMD9csAqS5zvxK-76" style="edgeStyle=orthogonalEdgeStyle;rounded=0;orthogonalLoop=1;jettySize=auto;html=1;entryX=0;entryY=0;entryDx=0;entryDy=0;" edge="1" parent="modZWdYMD9csAqS5zvxK-27" source="modZWdYMD9csAqS5zvxK-62" target="modZWdYMD9csAqS5zvxK-50">
          <mxGeometry relative="1" as="geometry">
            <Array as="points">
              <mxPoint x="678" y="120" />
            </Array>
          </mxGeometry>
        </mxCell>
        <mxCell id="modZWdYMD9csAqS5zvxK-62" value="حذف کاربر&amp;nbsp; &amp;nbsp; &amp;nbsp; &amp;nbsp;&amp;nbsp;" style="shape=mxgraph.uml25.behaviorAction;html=1;rounded=1;absoluteArcSize=1;arcSize=10;align=center;spacingLeft=5;whiteSpace=wrap;" vertex="1" parent="modZWdYMD9csAqS5zvxK-27">
          <mxGeometry x="450" y="85" width="160" height="70" as="geometry" />
        </mxCell>
        <mxCell id="modZWdYMD9csAqS5zvxK-75" value="" style="edgeStyle=orthogonalEdgeStyle;rounded=0;orthogonalLoop=1;jettySize=auto;html=1;" edge="1" parent="modZWdYMD9csAqS5zvxK-27" source="modZWdYMD9csAqS5zvxK-63" target="modZWdYMD9csAqS5zvxK-50">
          <mxGeometry relative="1" as="geometry" />
        </mxCell>
        <mxCell id="modZWdYMD9csAqS5zvxK-63" value="تغییر نقش افراد&amp;nbsp; &amp;nbsp; &amp;nbsp; &amp;nbsp; &amp;nbsp;&amp;nbsp;" style="shape=mxgraph.uml25.behaviorAction;html=1;rounded=1;absoluteArcSize=1;arcSize=10;align=center;spacingLeft=5;whiteSpace=wrap;" vertex="1" parent="modZWdYMD9csAqS5zvxK-27">
          <mxGeometry x="450" y="160" width="160" height="70" as="geometry" />
        </mxCell>
        <mxCell id="modZWdYMD9csAqS5zvxK-78" style="edgeStyle=orthogonalEdgeStyle;rounded=0;orthogonalLoop=1;jettySize=auto;html=1;entryX=0;entryY=1;entryDx=0;entryDy=0;" edge="1" parent="modZWdYMD9csAqS5zvxK-27" source="modZWdYMD9csAqS5zvxK-64" target="modZWdYMD9csAqS5zvxK-50">
          <mxGeometry relative="1" as="geometry" />
        </mxCell>
        <mxCell id="modZWdYMD9csAqS5zvxK-64" value="تغییر مشخصات کاربر" style="shape=mxgraph.uml25.behaviorAction;html=1;rounded=1;absoluteArcSize=1;arcSize=10;align=left;spacingLeft=5;whiteSpace=wrap;" vertex="1" parent="modZWdYMD9csAqS5zvxK-27">
          <mxGeometry x="450" y="240" width="160" height="70" as="geometry" />
        </mxCell>
        <mxCell id="modZWdYMD9csAqS5zvxK-79" style="edgeStyle=orthogonalEdgeStyle;rounded=0;orthogonalLoop=1;jettySize=auto;html=1;entryX=0.5;entryY=1;entryDx=0;entryDy=0;" edge="1" parent="modZWdYMD9csAqS5zvxK-27" source="modZWdYMD9csAqS5zvxK-65" target="modZWdYMD9csAqS5zvxK-50">
          <mxGeometry relative="1" as="geometry" />
        </mxCell>
        <mxCell id="modZWdYMD9csAqS5zvxK-65" value="تعلیق کاربر&amp;nbsp; &amp;nbsp; &amp;nbsp; &amp;nbsp; &amp;nbsp;" style="shape=mxgraph.uml25.behaviorAction;html=1;rounded=1;absoluteArcSize=1;arcSize=10;align=center;spacingLeft=5;whiteSpace=wrap;" vertex="1" parent="modZWdYMD9csAqS5zvxK-27">
          <mxGeometry x="450" y="320" width="160" height="70" as="geometry" />
        </mxCell>
        <mxCell id="modZWdYMD9csAqS5zvxK-67" style="edgeStyle=orthogonalEdgeStyle;rounded=0;orthogonalLoop=1;jettySize=auto;html=1;entryX=0;entryY=0.571;entryDx=0;entryDy=0;entryPerimeter=0;" edge="1" parent="modZWdYMD9csAqS5zvxK-27" source="modZWdYMD9csAqS5zvxK-58" target="modZWdYMD9csAqS5zvxK-63">
          <mxGeometry relative="1" as="geometry">
            <Array as="points">
              <mxPoint x="340" y="200" />
            </Array>
          </mxGeometry>
        </mxCell>
        <mxCell id="modZWdYMD9csAqS5zvxK-83" value="[تغییر نقش افراد]" style="text;html=1;align=center;verticalAlign=middle;resizable=0;points=[];autosize=1;strokeColor=none;fillColor=none;" vertex="1" parent="modZWdYMD9csAqS5zvxK-27">
          <mxGeometry x="350" y="170" width="90" height="30" as="geometry" />
        </mxCell>
        <mxCell id="modZWdYMD9csAqS5zvxK-84" value="[تغییر مشخصات کاربر]" style="text;html=1;align=center;verticalAlign=middle;resizable=0;points=[];autosize=1;strokeColor=none;fillColor=none;" vertex="1" parent="modZWdYMD9csAqS5zvxK-27">
          <mxGeometry x="330" y="248" width="120" height="30" as="geometry" />
        </mxCell>
        <mxCell id="modZWdYMD9csAqS5zvxK-81" value="[افزودن کاربر]" style="text;html=1;align=center;verticalAlign=middle;resizable=0;points=[];autosize=1;strokeColor=none;fillColor=none;" vertex="1" parent="modZWdYMD9csAqS5zvxK-27">
          <mxGeometry x="350" y="15" width="80" height="30" as="geometry" />
        </mxCell>
        <mxCell id="modZWdYMD9csAqS5zvxK-82" value="[حذف کاربر]" style="text;html=1;align=center;verticalAlign=middle;resizable=0;points=[];autosize=1;strokeColor=none;fillColor=none;" vertex="1" parent="modZWdYMD9csAqS5zvxK-27">
          <mxGeometry x="350" y="90" width="80" height="30" as="geometry" />
        </mxCell>
        <mxCell id="modZWdYMD9csAqS5zvxK-85" value="[تعلیق کاربر]" style="text;html=1;align=center;verticalAlign=middle;resizable=0;points=[];autosize=1;strokeColor=none;fillColor=none;" vertex="1" parent="modZWdYMD9csAqS5zvxK-27">
          <mxGeometry x="350" y="338" width="80" height="30" as="geometry" />
        </mxCell>
      </root>
    </mxGraphModel>
  </diagram>
</mxfile>
